:SAMPLES-PER-SECOND 30
:FULLY-SPECIFIED
:DEGREES
90
root  69.0673 38.8057 -0.62175 -143.708 82.6883 -141.481
RightUpLeg  -7.49691 7.6683 10.3938
RightLeg  20.0075 -1.46203 -4.89622
RightFoot  -7.97645 0.202435 -4.5222
RightToes  8.73114e-010 -1.59028e-015 9.93923e-017
Spine  -4.3518 -1.64011 6.21953
Spine1  10.3321 -1.52577 1.22173
HEad  -13.8552 -0.702406 3.39772
LeftShoulder1  9.93923e-017 0 1.22299e-017
LeftArm  -25.7186 36.5355 -80.6591
LeftForeArm  12.0978 -1.24141 -3.59777
LeftHand  1.1172 8.45289 -5.78573
RightShoulder  1.98785e-016 -4.96962e-017 1.55301e-017
RightArm  23.8168 -22.1681 86.0615
RightForeArm  -45.6111 22.6578 -21.7411
RightHand  1.75214 -12.7084 -10.1742
LeftUpLeg  -18.5539 -7.6072 4.11902
LeftLeg  54.0841 -9.68955 2.99315
LeftFoot  11.0139 1.03651 -4.63682
LeftToes  -2.6557e-010 -5.74853e-011 7.92038e-011
91
root  70.8458 39.1191 -0.612256 -136.825 84.3526 -134.606
RightUpLeg  -3.15491 5.76301 10.2386
RightLeg  16.8864 1.5443 -3.73723
RightFoot  -7.64597 0.195296 -4.10293
RightToes  8.73114e-010 -1.59028e-015 9.93923e-017
Spine  -4.20197 -0.332063 8.12305
Spine1  9.99109 0.374679 -1.77745
HEad  -14.4441 -1.73829 3.77075
LeftShoulder1  9.93923e-017 0 1.22299e-017
LeftArm  -21.0394 44.1016 -74.6275
LeftForeArm  6.69215 -1.31373 -4.08599
LeftHand  1.17759 10.4059 -9.7314
RightShoulder  1.98785e-016 -4.96962e-017 1.55301e-017
RightArm  21.5849 -15.7591 84.515
RightForeArm  -41.0384 26.6158 -24.645
RightHand  1.7063 -12.4085 -10.3602
LeftUpLeg  -21.8647 -6.47783 3.1252
LeftLeg  47.1055 -8.3874 3.41002
LeftFoot  8.72455 1.06208 -5.3004
LeftToes  -2.6557e-010 -5.74853e-011 7.92038e-011
92
root  72.6054 39.2283 -0.614137 -118.703 85.4002 -116.701
RightUpLeg  0.357713 4.17751 10.1585
RightLeg  14.9502 4.64497 -2.56381
RightFoot  -7.77197 0.179345 -3.84833
RightToes  8.73114e-010 -1.59028e-015 9.93923e-017
Spine  -3.80823 0.935787 9.84515
Spine1  9.21655 1.90088 -3.6537
HEad  -15.3462 -2.3491 3.79743
LeftShoulder1  9.93923e-017 0 1.22299e-017
LeftArm  -12.011 50.9934 -67.2235
LeftForeArm  1.81128 -1.85649 -5.27866
LeftHand  1.18466 10.7039 -10.3564
RightShoulder  1.98785e-016 -4.96962e-017 1.55301e-017
RightArm  20.3583 -9.67799 82.6279
RightForeArm  -38.7935 30.3482 -27.3889
RightHand  1.75604 -12.5443 -10.7887
LeftUpLeg  -24.1723 -5.00667 3.03518
LeftLeg  37.7548 -7.31674 2.84956
LeftFoot  7.05691 1.01526 -5.50379
LeftToes  -2.6557e-010 -5.74853e-011 7.92038e-011
93
root  74.3579 39.226 -0.605122 -94.8065 85.855 -93.4417
RightUpLeg  3.47139 3.57403 9.91879
RightLeg  13.0651 6.97073 -1.7971
RightFoot  -8.2788 0.174272 -4.1448
RightToes  8.73114e-010 -1.59028e-015 9.93923e-017
Spine  -4.01354 2.22281 10.6621
Spine1  8.66993 3.20599 -4.85206
HEad  -16.0441 -2.8209 3.73654
LeftShoulder1  9.93923e-017 0 1.22299e-017
LeftArm  -0.638857 56.7052 -58.7843
LeftForeArm  -0.216607 -2.6619 -6.06167
LeftHand  1.15134 9.31126 -7.9345
RightShoulder  1.98785e-016 -4.96962e-017 1.55301e-017
RightArm  19.9267 -4.15367 80.7539
RightForeArm  -37.7998 32.908 -29.4246
RightHand  1.83314 -12.7426 -11.4623
LeftUpLeg  -25.5124 -4.06166 3.17367
LeftLeg  25.9028 -7.02575 1.28363
LeftFoot  6.10865 0.931357 -5.30436
LeftToes  -2.6557e-010 -5.74853e-011 7.92038e-011
94
root  76.0976 39.1636 -0.591512 -73.2389 85.9207 -72.6617
RightUpLeg  6.5283 3.26947 9.37801
RightLeg  10.9274 8.42947 -1.37242
RightFoot  -8.94947 0.157476 -4.36531
RightToes  8.73114e-010 -1.59028e-015 9.93923e-017
Spine  -4.74954 3.31588 10.6395
Spine1  8.70325 4.3164 -5.77796
HEad  -16.281 -3.23211 3.93574
LeftShoulder1  9.93923e-017 0 1.22299e-017
LeftArm  9.79904 60.7693 -49.4761
LeftForeArm  -0.392802 -3.12561 -6.31798
LeftHand  1.12593 8.60522 -6.62025
RightShoulder  1.98785e-016 -4.96962e-017 1.55301e-017
RightArm  20.0608 0.626739 79.1499
RightForeArm  -37.6505 34.2605 -30.5363
RightHand  1.90686 -12.8769 -12.258
LeftUpLeg  -25.9846 -3.98849 3.18154
LeftLeg  12.3491 -6.98405 0.150155
LeftFoot  5.42396 0.952496 -5.63855
LeftToes  -2.6557e-010 -5.74853e-011 7.92038e-011
95
root  77.8805 38.9519 -0.610383 -60.2044 85.7242 -60.0646
RightUpLeg  9.41789 2.74744 8.7495
RightLeg  10.0272 9.342 -1.04348
RightFoot  -10.0035 0.102066 -3.77164
RightToes  8.73114e-010 -1.59028e-015 9.93923e-017
Spine  -5.15244 3.94121 10.6007
Spine1  8.89943 5.12524 -6.55644
HEad  -16.3853 -3.51215 4.34406
LeftShoulder1  9.93923e-017 0 1.22299e-017
LeftArm  16.8107 63.0189 -40.2946
LeftForeArm  0.606028 -2.9382 -6.18947
LeftHand  1.15531 9.26929 -7.77283
RightShoulder  1.98785e-016 -4.96962e-017 1.55301e-017
RightArm  20.3273 4.36748 77.963
RightForeArm  -37.8105 34.8326 -31.0042
RightHand  2.02575 -13.2532 -12.9094
LeftUpLeg  -26.0678 -2.47421 2.1359
LeftLeg  0.862133 -8.36135 0.274088
LeftFoot  3.75522 0.988588 -6.48315
LeftToes  -2.6557e-010 -5.74853e-011 7.92038e-011
96
root  79.714 38.6231 -0.681141 -54.9649 85.5481 -54.9138
RightUpLeg  12.1183 2.39268 8.25322
RightLeg  10.4543 9.97999 -0.923983
RightFoot  -10.8714 0.0509561 -2.63423
RightToes  8.73114e-010 -1.59028e-015 9.93923e-017
Spine  -5.05114 4.18617 10.6947
Spine1  9.04976 5.61877 -7.17689
HEad  -16.7339 -3.7759 4.47261
LeftShoulder1  9.93923e-017 0 1.22299e-017
LeftArm  19.5404 63.7646 -33.1764
LeftForeArm  2.98735 -2.29776 -5.67625
LeftHand  1.18947 9.86386 -8.25467
RightShoulder  1.98785e-016 -4.96962e-017 1.55301e-017
RightArm  20.2198 6.59769 77.2421
RightForeArm  -37.7517 35.05 -31.1926
RightHand  2.09746 -13.5152 -13.162
LeftUpLeg  -26.848 -2.22465 1.74744
LeftLeg  -3.36949 -7.56229 0.273297
LeftFoot  1.15216 0.857546 -6.67011
LeftToes  -2.6557e-010 -5.74853e-011 7.92038e-011
97
root  81.6498 38.2136 -0.787875 -49.9091 85.6474 -50.0179
RightUpLeg  14.3778 2.89776 7.74532
RightLeg  12.0253 9.95341 -1.04675
RightFoot  -11.5409 0.015426 -1.06091
RightToes  8.73114e-010 -1.59028e-015 9.93923e-017
Spine  -5.43225 4.4046 10.1851
Spine1  9.62344 5.95727 -7.26008
HEad  -17.3406 -4.18483 4.31146
LeftShoulder1  9.93923e-017 0 1.22299e-017
LeftArm  19.1039 63.7162 -29.7071
LeftForeArm  4.62316 -1.71838 -4.99141
LeftHand  1.22208 9.92828 -7.06433
RightShoulder  1.98785e-016 -4.96962e-017 1.55301e-017
RightArm  19.7502 6.88015 77.0089
RightForeArm  -37.4391 35.2446 -31.3807
RightHand  1.9847 -13.0456 -12.9571
LeftUpLeg  -28.3643 -2.64955 1.30761
LeftLeg  -0.267553 -5.79716 0.691487
LeftFoot  0.71306 0.723078 -5.76963
LeftToes  -2.6557e-010 -5.74853e-011 7.92038e-011
98
root  83.7189 37.7488 -0.907895 -34.8059 85.9084 -35.217
RightUpLeg  15.9019 4.29668 6.42639
RightLeg  15.1089 8.97364 -0.704527
RightFoot  -11.7172 -0.0127058 1.6975
RightToes  8.73114e-010 -1.59028e-015 9.93923e-017
Spine  -6.47917 4.84811 8.50084
Spine1  10.4369 6.30711 -6.73339
HEad  -18.0738 -4.64581 4.67403
LeftShoulder1  9.93923e-017 0 1.22299e-017
LeftArm  17.0425 63.5055 -29.7917
LeftForeArm  2.73856 -1.45042 -4.60334
LeftHand  1.2896 10.487 -6.33104
RightShoulder  1.98785e-016 -4.96962e-017 1.55301e-017
RightArm  19.1796 4.87489 77.3814
RightForeArm  -37.1757 35.5353 -31.6497
RightHand  1.79634 -12.17 -12.9063
LeftUpLeg  -29.7319 -4.8868 1.26001
LeftLeg  5.99342 -2.53386 1.61455
LeftFoot  4.79232 0.648463 -3.98352
LeftToes  -2.6557e-010 -5.74853e-011 7.92038e-011
99
root  85.8079 37.3549 -1.03645 -7.01471 85.9229 -7.42035
RightUpLeg  16.2382 3.41775 2.87525
RightLeg  20.287 9.81547 0.216259
RightFoot  -8.95384 -0.185188 4.94049
RightToes  8.73114e-010 -1.59028e-015 9.93923e-017
Spine  -6.56213 5.1812 6.04562
Spine1  10.2275 6.67259 -6.66986
HEad  -18.8866 -5.01075 5.85981
LeftShoulder1  9.93923e-017 0 1.22299e-017
LeftArm  13.5786 63.0904 -32.6302
LeftForeArm  -1.12996 -1.37815 -4.54846
LeftHand  1.36395 10.8361 -5.05395
RightShoulder  1.98785e-016 -4.96962e-017 1.55301e-017
RightArm  18.4638 0.464534 78.5975
RightForeArm  -36.83 35.4681 -31.6191
RightHand  1.74146 -11.8354 -13.2241
LeftUpLeg  -30.6163 -8.62953 1.21403
LeftLeg  12.8644 1.305 2.56849
LeftFoot  9.48507 0.381244 -1.7902
LeftToes  -2.6557e-010 -5.74853e-011 7.92038e-011
100
root  87.7461 37.1183 -1.19177 22.0164 85.2812 22.1666
RightUpLeg  14.5858 1.08318 -1.83589
RightLeg  28.5526 11.4984 1.2183
RightFoot  -0.434314 -0.69116 6.1762
RightToes  8.73114e-010 -1.59028e-015 9.93923e-017
Spine  -4.69952 5.06017 3.89994
Spine1  8.90639 6.84699 -8.07356
HEad  -19.4107 -5.41542 6.40748
LeftShoulder1  9.93923e-017 0 1.22299e-017
LeftArm  7.59624 61.7235 -38.6631
LeftForeArm  -2.34772 -1.34082 -4.46175
LeftHand  1.25568 9.31974 -2.5731
RightShoulder  1.98785e-016 -4.96962e-017 1.55301e-017
RightArm  17.5851 -5.55597 80.8537
RightForeArm  -36.2858 34.1668 -30.5603
RightHand  1.87064 -12.4461 -13.1864
LeftUpLeg  -30.4654 -10.0781 -1.21215
LeftLeg  19.1388 1.90052 3.95301
LeftFoot  9.59951 -0.0511412 0.394419
LeftToes  -2.6557e-010 -5.74853e-011 7.92038e-011
